<svg xmlns="http://www.w3.org/2000/svg" viewBox="0 0 760 220" role="img" aria-labelledby="title desc" shape-rendering="crispEdges">
  <title id="title">Pixel Space Shooter</title>
  <desc id="desc">A pixelated space shooter scene with chickens moving left to right and getting blasted in a loop.</desc>
  <defs>
    <linearGradient id="bg" x1="0" y1="0" x2="0" y2="1">
      <stop offset="0%" stop-color="#070a10"/>
      <stop offset="100%" stop-color="#101722"/>
    </linearGradient>

    <g id="chicken">
      <rect x="8" y="0" width="4" height="4" fill="#ff5d73"/>
      <rect x="12" y="0" width="4" height="4" fill="#ff5d73"/>
      <rect x="4" y="4" width="4" height="4" fill="#ff5d73"/>
      <rect x="8" y="4" width="4" height="4" fill="#ffd54a"/>
      <rect x="12" y="4" width="4" height="4" fill="#ffd54a"/>
      <rect x="16" y="4" width="4" height="4" fill="#ff9f1c"/>
      <rect x="20" y="4" width="4" height="4" fill="#ff5d73"/>
      <rect x="0" y="8" width="4" height="4" fill="#ffd54a"/>
      <rect x="4" y="8" width="4" height="4" fill="#ffd54a"/>
      <rect x="8" y="8" width="4" height="4" fill="#ffd54a"/>
      <rect x="12" y="8" width="4" height="4" fill="#ffd54a"/>
      <rect x="16" y="8" width="4" height="4" fill="#ffd54a"/>
      <rect x="20" y="8" width="4" height="4" fill="#ffd54a"/>
      <rect x="24" y="8" width="4" height="4" fill="#ffd54a"/>
      <rect x="0" y="12" width="4" height="4" fill="#ffd54a"/>
      <rect x="4" y="12" width="4" height="4" fill="#0b0f16"/>
      <rect x="8" y="12" width="4" height="4" fill="#ffd54a"/>
      <rect x="12" y="12" width="4" height="4" fill="#ffd54a"/>
      <rect x="16" y="12" width="4" height="4" fill="#0b0f16"/>
      <rect x="20" y="12" width="4" height="4" fill="#ffd54a"/>
      <rect x="24" y="12" width="4" height="4" fill="#ffd54a"/>
      <rect x="0" y="16" width="4" height="4" fill="#ffd54a"/>
      <rect x="4" y="16" width="4" height="4" fill="#ffd54a"/>
      <rect x="8" y="16" width="4" height="4" fill="#ffd54a"/>
      <rect x="12" y="16" width="4" height="4" fill="#ffd54a"/>
      <rect x="16" y="16" width="4" height="4" fill="#ffd54a"/>
      <rect x="20" y="16" width="4" height="4" fill="#ffd54a"/>
      <rect x="24" y="16" width="4" height="4" fill="#ffd54a"/>
      <rect x="4" y="20" width="4" height="4" fill="#ff9f1c"/>
      <rect x="20" y="20" width="4" height="4" fill="#ff9f1c"/>
    </g>

    <g id="ship">
      <rect x="10" y="0" width="8" height="4" fill="#dce4ef"/>
      <rect x="6" y="4" width="16" height="4" fill="#dce4ef"/>
      <rect x="2" y="8" width="24" height="4" fill="#aab4c2"/>
      <rect x="0" y="12" width="28" height="4" fill="#7b8797"/>
      <rect x="4" y="16" width="20" height="4" fill="#dce4ef"/>
      <rect x="10" y="20" width="8" height="4" fill="#00c2ff"/>
      <rect x="12" y="24" width="4" height="4" fill="#7ee787"/>
    </g>

    <g id="boom">
      <rect x="8" y="4" width="4" height="4" fill="#ffd166"/>
      <rect x="4" y="8" width="4" height="4" fill="#ff9f1c"/>
      <rect x="8" y="8" width="4" height="4" fill="#ff6b6b"/>
      <rect x="12" y="8" width="4" height="4" fill="#ff9f1c"/>
      <rect x="0" y="12" width="4" height="4" fill="#ff6b6b"/>
      <rect x="4" y="12" width="4" height="4" fill="#ffd166"/>
      <rect x="8" y="12" width="4" height="4" fill="#ffffff"/>
      <rect x="12" y="12" width="4" height="4" fill="#ffd166"/>
      <rect x="16" y="12" width="4" height="4" fill="#ff6b6b"/>
      <rect x="4" y="16" width="4" height="4" fill="#ff9f1c"/>
      <rect x="8" y="16" width="4" height="4" fill="#ff6b6b"/>
      <rect x="12" y="16" width="4" height="4" fill="#ff9f1c"/>
      <rect x="8" y="20" width="4" height="4" fill="#ffd166"/>
    </g>
  </defs>

  <rect width="760" height="220" rx="18" fill="url(#bg)"/>

  <g opacity="0.9">
    <rect x="34" y="28" width="2" height="2" fill="#e6edf3"><animate attributeName="opacity" values="0.15;1;0.15" dur="2.4s" repeatCount="indefinite"/></rect>
    <rect x="88" y="44" width="2" height="2" fill="#7ee787"><animate attributeName="opacity" values="0.15;1;0.15" dur="3.2s" repeatCount="indefinite"/></rect>
    <rect x="150" y="18" width="2" height="2" fill="#e6edf3"><animate attributeName="opacity" values="0.15;1;0.15" dur="2.9s" repeatCount="indefinite"/></rect>
    <rect x="214" y="60" width="2" height="2" fill="#ff6b6b"><animate attributeName="opacity" values="0.15;1;0.15" dur="2.7s" repeatCount="indefinite"/></rect>
    <rect x="286" y="26" width="2" height="2" fill="#00c2ff"><animate attributeName="opacity" values="0.15;1;0.15" dur="3.5s" repeatCount="indefinite"/></rect>
    <rect x="362" y="48" width="2" height="2" fill="#e6edf3"><animate attributeName="opacity" values="0.15;1;0.15" dur="2.1s" repeatCount="indefinite"/></rect>
    <rect x="438" y="22" width="2" height="2" fill="#7ee787"><animate attributeName="opacity" values="0.15;1;0.15" dur="3.7s" repeatCount="indefinite"/></rect>
    <rect x="506" y="52" width="2" height="2" fill="#e6edf3"><animate attributeName="opacity" values="0.15;1;0.15" dur="2.8s" repeatCount="indefinite"/></rect>
    <rect x="578" y="34" width="2" height="2" fill="#ff6b6b"><animate attributeName="opacity" values="0.15;1;0.15" dur="3.1s" repeatCount="indefinite"/></rect>
    <rect x="652" y="58" width="2" height="2" fill="#e6edf3"><animate attributeName="opacity" values="0.15;1;0.15" dur="2.6s" repeatCount="indefinite"/></rect>
    <rect x="720" y="24" width="2" height="2" fill="#7ee787"><animate attributeName="opacity" values="0.15;1;0.15" dur="2.3s" repeatCount="indefinite"/></rect>
  </g>

  <rect x="0" y="156" width="760" height="2" fill="#273040"/>
  <rect x="0" y="158" width="760" height="1" fill="#7ee787" opacity="0.12"/>

  <text x="380" y="24" text-anchor="middle" fill="#7ee787" font-family="monospace" font-size="14" font-weight="700">PIXEL SPACE SHOOTER</text>

  <g transform="translate(0 0)">
    <g transform="translate(-44 40)">
      <animateTransform attributeName="transform" type="translate" values="-44 40; 800 40" dur="7.5s" repeatCount="indefinite"/>
      <use href="#chicken"/>
      <animate attributeName="opacity" values="1;1;0;1" keyTimes="0;0.44;0.52;1" dur="7.5s" begin="0s" repeatCount="indefinite"/>
      <g transform="translate(10 8)" opacity="0">
        <use href="#boom"/>
        <animate attributeName="opacity" values="0;0;1;0;0" keyTimes="0;0.46;0.5;0.56;1" dur="7.5s" begin="0s" repeatCount="indefinite"/>
      </g>
    </g>

    <g transform="translate(-168 40)">
      <animateTransform attributeName="transform" type="translate" values="-168 40; 676 40" dur="7.5s" repeatCount="indefinite"/>
      <use href="#chicken"/>
      <animate attributeName="opacity" values="1;1;0;1" keyTimes="0;0.49;0.57;1" dur="7.5s" begin="1.2s" repeatCount="indefinite"/>
      <g transform="translate(10 8)" opacity="0">
        <use href="#boom"/>
        <animate attributeName="opacity" values="0;0;1;0;0" keyTimes="0;0.51;0.55;0.61;1" dur="7.5s" begin="1.2s" repeatCount="indefinite"/>
      </g>
    </g>

    <g transform="translate(-292 40)">
      <animateTransform attributeName="transform" type="translate" values="-292 40; 552 40" dur="7.5s" repeatCount="indefinite"/>
      <use href="#chicken"/>
      <animate attributeName="opacity" values="1;1;0;1" keyTimes="0;0.42;0.5;1" dur="7.5s" begin="2.4s" repeatCount="indefinite"/>
      <g transform="translate(10 8)" opacity="0">
        <use href="#boom"/>
        <animate attributeName="opacity" values="0;0;1;0;0" keyTimes="0;0.44;0.48;0.54;1" dur="7.5s" begin="2.4s" repeatCount="indefinite"/>
      </g>
    </g>

    <g transform="translate(-416 40)">
      <animateTransform attributeName="transform" type="translate" values="-416 40; 428 40" dur="7.5s" repeatCount="indefinite"/>
      <use href="#chicken"/>
      <animate attributeName="opacity" values="1;1;0;1" keyTimes="0;0.46;0.54;1" dur="7.5s" begin="3.6s" repeatCount="indefinite"/>
      <g transform="translate(10 8)" opacity="0">
        <use href="#boom"/>
        <animate attributeName="opacity" values="0;0;1;0;0" keyTimes="0;0.48;0.52;0.58;1" dur="7.5s" begin="3.6s" repeatCount="indefinite"/>
      </g>
    </g>

    <g transform="translate(-80 82)">
      <animateTransform attributeName="transform" type="translate" values="-80 82; 764 82" dur="8.2s" repeatCount="indefinite"/>
      <use href="#chicken"/>
      <animate attributeName="opacity" values="1;1;0;1" keyTimes="0;0.5;0.58;1" dur="8.2s" begin="0.6s" repeatCount="indefinite"/>
      <g transform="translate(10 8)" opacity="0">
        <use href="#boom"/>
        <animate attributeName="opacity" values="0;0;1;0;0" keyTimes="0;0.52;0.56;0.62;1" dur="8.2s" begin="0.6s" repeatCount="indefinite"/>
      </g>
    </g>

    <g transform="translate(-228 82)">
      <animateTransform attributeName="transform" type="translate" values="-228 82; 616 82" dur="8.2s" repeatCount="indefinite"/>
      <use href="#chicken"/>
      <animate attributeName="opacity" values="1;1;0;1" keyTimes="0;0.43;0.51;1" dur="8.2s" begin="1.8s" repeatCount="indefinite"/>
      <g transform="translate(10 8)" opacity="0">
        <use href="#boom"/>
        <animate attributeName="opacity" values="0;0;1;0;0" keyTimes="0;0.45;0.49;0.55;1" dur="8.2s" begin="1.8s" repeatCount="indefinite"/>
      </g>
    </g>

    <g transform="translate(-376 82)">
      <animateTransform attributeName="transform" type="translate" values="-376 82; 468 82" dur="8.2s" repeatCount="indefinite"/>
      <use href="#chicken"/>
      <animate attributeName="opacity" values="1;1;0;1" keyTimes="0;0.48;0.56;1" dur="8.2s" begin="3s" repeatCount="indefinite"/>
      <g transform="translate(10 8)" opacity="0">
        <use href="#boom"/>
        <animate attributeName="opacity" values="0;0;1;0;0" keyTimes="0;0.5;0.54;0.6;1" dur="8.2s" begin="3s" repeatCount="indefinite"/>
      </g>
    </g>
  </g>

  <g transform="translate(-20 166)">
    <animateTransform attributeName="transform" type="translate" values="-20 166; 700 166; -20 166" dur="6.5s" repeatCount="indefinite"/>
    <use href="#ship"/>
    <rect x="13" y="-18" width="2" height="16" fill="#7ee787">
      <animate attributeName="opacity" values="0;1;0" dur="0.7s" repeatCount="indefinite"/>
    </rect>
    <rect x="12" y="-36" width="4" height="18" fill="#00c2ff">
      <animate attributeName="opacity" values="0;1;0" dur="0.7s" repeatCount="indefinite"/>
    </rect>
    <rect x="13" y="-54" width="2" height="14" fill="#ffffff">
      <animate attributeName="opacity" values="0;1;0" dur="0.7s" repeatCount="indefinite"/>
    </rect>
  </g>
</svg>
